<svg width="800" height="600" viewBox="0 0 800 600" xmlns="http://www.w3.org/2000/svg">
  <defs>
    <radialGradient id="roseGradient" cx="50%" cy="30%" r="70%">
      <stop offset="0%" style="stop-color:#ff6b6b;stop-opacity:1" />
      <stop offset="50%" style="stop-color:#dc2626;stop-opacity:1" />
      <stop offset="100%" style="stop-color:#991b1b;stop-opacity:1" />
    </radialGradient>
    <radialGradient id="leafGradient" cx="30%" cy="20%" r="80%">
      <stop offset="0%" style="stop-color:#65a30d;stop-opacity:1" />
      <stop offset="100%" style="stop-color:#365314;stop-opacity:1" />
    </radialGradient>
    <linearGradient id="paperGradient" x1="0%" y1="0%" x2="100%" y2="100%">
      <stop offset="0%" style="stop-color:#fef3c7;stop-opacity:1" />
      <stop offset="100%" style="stop-color:#d97706;stop-opacity:1" />
    </linearGradient>
  </defs>
  
  <!-- Background -->
  <rect width="800" height="600" fill="#f8fafc"/>
  
  <!-- Paper wrapping -->
  <path d="M200 400 Q300 350 400 400 Q500 450 600 400 L650 500 Q500 550 400 500 Q300 450 150 500 Z" fill="url(#paperGradient)" opacity="0.8"/>
  
  <!-- Stems -->
  <rect x="380" y="300" width="8" height="200" fill="#365314" rx="4"/>
  <rect x="420" y="280" width="8" height="220" fill="#365314" rx="4"/>
  <rect x="360" y="320" width="8" height="180" fill="#365314" rx="4"/>
  
  <!-- Leaves -->
  <ellipse cx="340" cy="380" rx="25" ry="15" fill="url(#leafGradient)" transform="rotate(-30 340 380)"/>
  <ellipse cx="450" cy="360" rx="25" ry="15" fill="url(#leafGradient)" transform="rotate(45 450 360)"/>
  <ellipse cx="370" cy="420" rx="20" ry="12" fill="url(#leafGradient)" transform="rotate(-60 370 420)"/>
  
  <!-- Baby's breath (small white flowers) -->
  <circle cx="320" cy="340" r="3" fill="white" opacity="0.9"/>
  <circle cx="330" cy="350" r="2" fill="white" opacity="0.9"/>
  <circle cx="460" cy="320" r="3" fill="white" opacity="0.9"/>
  <circle cx="470" cy="340" r="2" fill="white" opacity="0.9"/>
  <circle cx="350" cy="360" r="2" fill="white" opacity="0.9"/>
  
  <!-- Main roses -->
  <!-- Rose 1 -->
  <g transform="translate(400,250)">
    <circle cx="0" cy="0" r="35" fill="url(#roseGradient)"/>
    <path d="M-20,-10 Q0,-25 20,-10 Q15,5 0,0 Q-15,5 -20,-10" fill="#dc2626" opacity="0.8"/>
    <path d="M-15,-5 Q0,-15 15,-5 Q10,8 0,5 Q-10,8 -15,-5" fill="#ef4444" opacity="0.9"/>
    <circle cx="0" cy="0" r="8" fill="#fca5a5" opacity="0.7"/>
  </g>
  
  <!-- Rose 2 -->
  <g transform="translate(360,280)">
    <circle cx="0" cy="0" r="32" fill="url(#roseGradient)"/>
    <path d="M-18,-8 Q0,-22 18,-8 Q13,6 0,2 Q-13,6 -18,-8" fill="#dc2626" opacity="0.8"/>
    <path d="M-13,-3 Q0,-13 13,-3 Q8,7 0,4 Q-8,7 -13,-3" fill="#ef4444" opacity="0.9"/>
    <circle cx="0" cy="0" r="7" fill="#fca5a5" opacity="0.7"/>
  </g>
  
  <!-- Rose 3 -->
  <g transform="translate(440,270)">
    <circle cx="0" cy="0" r="30" fill="url(#roseGradient)"/>
    <path d="M-16,-7 Q0,-20 16,-7 Q12,5 0,1 Q-12,5 -16,-7" fill="#dc2626" opacity="0.8"/>
    <path d="M-12,-2 Q0,-12 12,-2 Q7,6 0,3 Q-7,6 -12,-2" fill="#ef4444" opacity="0.9"/>
    <circle cx="0" cy="0" r="6" fill="#fca5a5" opacity="0.7"/>
  </g>
  
  <!-- Rose 4 (smaller, background) -->
  <g transform="translate(380,300)">
    <circle cx="0" cy="0" r="25" fill="url(#roseGradient)" opacity="0.9"/>
    <path d="M-13,-5 Q0,-16 13,-5 Q10,4 0,1 Q-10,4 -13,-5" fill="#dc2626" opacity="0.7"/>
    <circle cx="0" cy="0" r="5" fill="#fca5a5" opacity="0.6"/>
  </g>
  
  <!-- Rose 5 (smaller, background) -->
  <g transform="translate(420,310)">
    <circle cx="0" cy="0" r="28" fill="url(#roseGradient)" opacity="0.8"/>
    <path d="M-14,-6 Q0,-18 14,-6 Q11,5 0,2 Q-11,5 -14,-6" fill="#dc2626" opacity="0.7"/>
    <circle cx="0" cy="0" r="6" fill="#fca5a5" opacity="0.6"/>
  </g>
  
  <!-- Ribbon -->
  <path d="M350 450 Q400 440 450 450 Q460 460 450 470 Q400 480 350 470 Q340 460 350 450" fill="#dc2626" opacity="0.9"/>
  <path d="M350 450 Q400 445 450 450 Q455 455 450 460 Q400 465 350 460 Q345 455 350 450" fill="#ef4444"/>
</svg>