<svg width="800" height="600" viewBox="0 0 800 600" xmlns="http://www.w3.org/2000/svg">
  <defs>
    <radialGradient id="sunflowerCenter" cx="50%" cy="50%" r="50%">
      <stop offset="0%" style="stop-color:#92400e;stop-opacity:1" />
      <stop offset="100%" style="stop-color:#451a03;stop-opacity:1" />
    </radialGradient>
    <linearGradient id="petalGradient" x1="0%" y1="0%" x2="100%" y2="100%">
      <stop offset="0%" style="stop-color:#fbbf24;stop-opacity:1" />
      <stop offset="50%" style="stop-color:#f59e0b;stop-opacity:1" />
      <stop offset="100%" style="stop-color:#d97706;stop-opacity:1" />
    </linearGradient>
    <linearGradient id="leafGradient" x1="0%" y1="0%" x2="100%" y2="100%">
      <stop offset="0%" style="stop-color:#84cc16;stop-opacity:1" />
      <stop offset="100%" style="stop-color:#365314;stop-opacity:1" />
    </linearGradient>
  </defs>
  
  <!-- Background -->
  <rect width="800" height="600" fill="#f0fdf4"/>
  
  <!-- Stems -->
  <rect x="380" y="350" width="12" height="250" fill="#365314" rx="6"/>
  <rect x="520" y="380" width="10" height="220" fill="#365314" rx="5"/>
  <rect x="280" y="400" width="10" height="200" fill="#365314" rx="5"/>
  
  <!-- Large leaves -->
  <ellipse cx="320" cy="450" rx="40" ry="25" fill="url(#leafGradient)" transform="rotate(-45 320 450)"/>
  <ellipse cx="480" cy="480" rx="35" ry="20" fill="url(#leafGradient)" transform="rotate(30 480 480)"/>
  <ellipse cx="350" cy="500" rx="30" ry="18" fill="url(#leafGradient)" transform="rotate(-20 350 500)"/>
  
  <!-- Baby's breath -->
  <circle cx="300" cy="380" r="4" fill="white" opacity="0.9"/>
  <circle cx="310" cy="390" r="3" fill="white" opacity="0.9"/>
  <circle cx="320" cy="385" r="3" fill="white" opacity="0.9"/>
  <circle cx="480" cy="350" r="4" fill="white" opacity="0.9"/>
  <circle cx="490" cy="365" r="3" fill="white" opacity="0.9"/>
  <circle cx="500" cy="355" r="3" fill="white" opacity="0.9"/>
  
  <!-- Main Sunflower -->
  <g transform="translate(400,280)">
    <!-- Outer petals -->
    <g>
      <ellipse cx="0" cy="-45" rx="8" ry="25" fill="url(#petalGradient)" transform="rotate(0)"/>
      <ellipse cx="0" cy="-45" rx="8" ry="25" fill="url(#petalGradient)" transform="rotate(30)"/>
      <ellipse cx="0" cy="-45" rx="8" ry="25" fill="url(#petalGradient)" transform="rotate(60)"/>
      <ellipse cx="0" cy="-45" rx="8" ry="25" fill="url(#petalGradient)" transform="rotate(90)"/>
      <ellipse cx="0" cy="-45" rx="8" ry="25" fill="url(#petalGradient)" transform="rotate(120)"/>
      <ellipse cx="0" cy="-45" rx="8" ry="25" fill="url(#petalGradient)" transform="rotate(150)"/>
      <ellipse cx="0" cy="-45" rx="8" ry="25" fill="url(#petalGradient)" transform="rotate(180)"/>
      <ellipse cx="0" cy="-45" rx="8" ry="25" fill="url(#petalGradient)" transform="rotate(210)"/>
      <ellipse cx="0" cy="-45" rx="8" ry="25" fill="url(#petalGradient)" transform="rotate(240)"/>
      <ellipse cx="0" cy="-45" rx="8" ry="25" fill="url(#petalGradient)" transform="rotate(270)"/>
      <ellipse cx="0" cy="-45" rx="8" ry="25" fill="url(#petalGradient)" transform="rotate(300)"/>
      <ellipse cx="0" cy="-45" rx="8" ry="25" fill="url(#petalGradient)" transform="rotate(330)"/>
    </g>
    <!-- Center -->
    <circle cx="0" cy="0" r="25" fill="url(#sunflowerCenter)"/>
    <!-- Center pattern -->
    <circle cx="-8" cy="-8" r="2" fill="#92400e"/>
    <circle cx="8" cy="-8" r="2" fill="#92400e"/>
    <circle cx="0" cy="8" r="2" fill="#92400e"/>
    <circle cx="-5" cy="5" r="1.5" fill="#92400e"/>
    <circle cx="5" cy="5" r="1.5" fill="#92400e"/>
  </g>
  
  <!-- Second Sunflower (smaller) -->
  <g transform="translate(530,320)">
    <!-- Outer petals -->
    <g>
      <ellipse cx="0" cy="-35" rx="6" ry="20" fill="url(#petalGradient)" transform="rotate(0)"/>
      <ellipse cx="0" cy="-35" rx="6" ry="20" fill="url(#petalGradient)" transform="rotate(45)"/>
      <ellipse cx="0" cy="-35" rx="6" ry="20" fill="url(#petalGradient)" transform="rotate(90)"/>
      <ellipse cx="0" cy="-35" rx="6" ry="20" fill="url(#petalGradient)" transform="rotate(135)"/>
      <ellipse cx="0" cy="-35" rx="6" ry="20" fill="url(#petalGradient)" transform="rotate(180)"/>
      <ellipse cx="0" cy="-35" rx="6" ry="20" fill="url(#petalGradient)" transform="rotate(225)"/>
      <ellipse cx="0" cy="-35" rx="6" ry="20" fill="url(#petalGradient)" transform="rotate(270)"/>
      <ellipse cx="0" cy="-35" rx="6" ry="20" fill="url(#petalGradient)" transform="rotate(315)"/>
    </g>
    <!-- Center -->
    <circle cx="0" cy="0" r="18" fill="url(#sunflowerCenter)"/>
    <circle cx="-5" cy="-5" r="1.5" fill="#92400e"/>
    <circle cx="5" cy="-5" r="1.5" fill="#92400e"/>
    <circle cx="0" cy="5" r="1.5" fill="#92400e"/>
  </g>
  
  <!-- Third Sunflower (smallest, background) -->
  <g transform="translate(290,350)">
    <!-- Outer petals -->
    <g>
      <ellipse cx="0" cy="-25" rx="5" ry="15" fill="url(#petalGradient)" opacity="0.9" transform="rotate(0)"/>
      <ellipse cx="0" cy="-25" rx="5" ry="15" fill="url(#petalGradient)" opacity="0.9" transform="rotate(60)"/>
      <ellipse cx="0" cy="-25" rx="5" ry="15" fill="url(#petalGradient)" opacity="0.9" transform="rotate(120)"/>
      <ellipse cx="0" cy="-25" rx="5" ry="15" fill="url(#petalGradient)" opacity="0.9" transform="rotate(180)"/>
      <ellipse cx="0" cy="-25" rx="5" ry="15" fill="url(#petalGradient)" opacity="0.9" transform="rotate(240)"/>
      <ellipse cx="0" cy="-25" rx="5" ry="15" fill="url(#petalGradient)" opacity="0.9" transform="rotate(300)"/>
    </g>
    <!-- Center -->
    <circle cx="0" cy="0" r="12" fill="url(#sunflowerCenter)" opacity="0.9"/>
  </g>
</svg>